<?xml version="1.0" encoding="utf-8"?>
<!-- Generator: Adobe Illustrator 15.0.0, SVG Export Plug-In . SVG Version: 6.00 Build 0)  -->
<!DOCTYPE svg PUBLIC "-//W3C//DTD SVG 1.1//EN" "http://www.w3.org/Graphics/SVG/1.1/DTD/svg11.dtd">
<svg version="1.1" id="Layer_1" xmlns="http://www.w3.org/2000/svg" xmlns:xlink="http://www.w3.org/1999/xlink" x="0px" y="0px"
	 width="326.051px" height="93.335px" viewBox="0 0 326.051 93.335" enable-background="new 0 0 326.051 93.335"
	 xml:space="preserve">
<text transform="matrix(1 0 0 1 622.98 -524.2461)"><tspan x="0" y="0" fill="#F45A4E" font-family="'LeckerliOne-Regular'" font-size="80.0919">Route </tspan><tspan x="229.219" y="0" fill="#F45A4E" font-family="'LeckerliOne-Regular'" font-size="100">S</tspan><tspan x="286.218" y="0" fill="#F45A4E" font-family="'LeckerliOne-Regular'" font-size="80.0919">peed</tspan></text>
<text transform="matrix(1 0 0 1 622.98 -368.3135)" fill="#F45A4E" font-family="'LeckerliOne-Regular'" font-size="80.0919">Route</text>
<text transform="matrix(1 0 0 1 52.98 -190.3135)"><tspan x="0" y="0" fill="#F45A4E" font-family="'LeckerliOne-Regular'" font-size="80.0919">Routes</tspan><tspan x="229.298" y="0" fill="#FFFFFF" font-family="'LeckerliOne-Regular'" font-size="80.0919">p</tspan><tspan x="273.348" y="0" fill="#F45A4E" font-family="'LeckerliOne-Regular'" font-size="80.0919">eed</tspan></text>
<text transform="matrix(1 0 0 1 867.895 -367.4658)" fill="#F45A4E" font-family="'LeckerliOne-Regular'" font-size="80.0919">peed</text>
<g>
	<path fill="#F45A4E" d="M718.102,13.643c2.776-3.15,6.327-4.725,10.652-4.725c6.193,0,10.118,2.51,11.773,7.527
		c0.48,1.496,0.721,3.152,0.721,4.967c0,4.059-7.321,21.063-9.964,25.014s0.166,6.621-3.571,8.009c0,0-2.671,6.968-4.485,6.647
		c-1.816-0.32-3.204-0.721-4.165-1.201c-2.082-1.067-3.124-2.67-3.124-4.806c0-1.174,0.24-2.243,0.721-3.204
		c4.217,0,1.421-1.602,3.611-4.805c2.189-3.204,9.284-20.209,9.284-25.014c0-1.174-0.428-2.229-1.281-3.164
		c-0.855-0.934-1.99-1.401-3.404-1.401c-1.416,0-2.951,0.614-4.605,1.842c-1.656,1.229-2.977,2.763-3.964,4.605
		c-0.989,1.842-1.882,3.657-2.683,5.446c-0.801,1.789-1.442,4.045-1.922,6.768c-0.855,4.913,4.17,11.119,3.077,18.621
		c-1.095,7.502-1.776,11.533-2.042,12.094c-0.268,0.561-0.668,1.082-1.201,1.563c-0.535,0.48-1.095,0.721-1.682,0.721
		c-1.069,0-1.95-0.32-2.643-0.961c-1.922-1.656-3.043-2.924-3.364-3.805s-0.48-2.016-0.48-3.404c0-5.232-5.119-12.574-3.357-22.025
		c1.762-9.45,4.805-19.273,9.13-29.473c0.641-1.494,1.774-2.243,3.404-2.243c1.628,0,3.19,1.441,4.686,4.325
		C717.648,12.309,717.942,13.002,718.102,13.643z"/>
</g>
<text transform="matrix(1 0 0 1 814.5054 -368.1348)" fill="#F45A4E" font-family="'LeckerliOne-Regular'" font-size="109.3014">S</text>
<text transform="matrix(1 0 0 1 622.98 -785.2627)"><tspan x="0" y="0" fill="#F45A4E" font-family="'LeckerliOne-Regular'" font-size="80.0919">Route </tspan><tspan x="229.219" y="0" fill="#F45A4E" font-family="'LeckerliOne-Regular'" font-size="100">S</tspan><tspan x="286.218" y="0" fill="#F45A4E" font-family="'LeckerliOne-Regular'" font-size="80.0919">peed</tspan></text>
<path fill="#E0E1E2" d="M992.431-740.249c-1.604,0-3.167,0.187-4.671,0.531v5.066h-6.398c-0.441,0-0.801,0.36-0.801,0.801
	c0,0.442,0.359,0.801,0.801,0.801h6.398v4h-10.398c-0.441,0-0.801,0.359-0.801,0.801c0,0.441,0.359,0.801,0.801,0.801h10.398v4
	h-14.398c-0.441,0-0.801,0.355-0.801,0.796c0,0.446,0.36,0.801,0.801,0.801h14.398v3.999h-17.598c-0.442,0-0.801,0.361-0.801,0.803
	c0,0.439,0.359,0.8,0.801,0.8h17.598v4h-12.797c-0.446,0-0.801,0.354-0.801,0.802c0,0.441,0.355,0.795,0.801,0.795h12.797v4h-8
	c-0.441,0-0.797,0.361-0.797,0.801c0,0.443,0.355,0.803,0.797,0.803h8v5.867c1.504,0.344,3.066,0.529,4.671,0.529
	c11.489,0,20.802-9.311,20.802-20.795C1013.233-730.937,1003.92-740.249,992.431-740.249"/>
<path fill="#F45A4E" d="M1002.729-728.015c-0.281-0.277-0.719-0.312-1.035-0.082l-10.359,7.487
	c-0.676,0.494-1.098,1.254-1.164,2.086s0.238,1.65,0.828,2.24c0.535,0.539,1.254,0.836,2.012,0.836c0.91,0,1.773-0.441,2.309-1.176
	l7.492-10.356C1003.041-727.3,1003.006-727.738,1002.729-728.015"/>
<path fill="#28B688" d="M1003.233-738.155c-0.383-0.223-0.875-0.09-1.094,0.292l-1.199,2.079c-0.223,0.382-0.09,0.871,0.293,1.093
	c0.125,0.071,0.262,0.106,0.398,0.106c0.277,0,0.543-0.145,0.691-0.399l1.203-2.078
	C1003.745-737.445,1003.616-737.938,1003.233-738.155"/>
<image overflow="visible" width="168" height="71" xlink:href="eriktailor_logo.png"  transform="matrix(3.3105 0 0 3.3105 828.0732 53.0752)">
</image>
<path fill-rule="evenodd" clip-rule="evenodd" d="M1221.397-435.635c1.333,0,2.667,0,4,0c2.464,11.085-2.886,29.307,2,39.995
	c6.54-6.031,0.125-20.34,9.998-23.997c3.402-0.069,6.978-0.312,7.999,2c1.995-1.005,1.578-4.422,5-4
	c0.839,1.161,1.318,2.681,0.999,5c3.146,0.499,3.909-2.18,6,0c0.907,6.143-2.382,10.328,0,14.998
	c5.501-1.682,2.543-16.538,8.998-13.999c0,1.334,0,2.667,0,4c-3.43,5.235-2.393,14.938-11.998,13.998
	c-4.614-3.104-3.787-9.694-3-15.998c-4.083,0.432-1.335,5.727-1.999,7.999c-1.334,4.559-3.435,6.584-6.999,7.999
	c-3.643,0.31-6.508-0.159-8.999-1c-1.372,4.294-3.013,8.319-7.999,8.999c-3.942-1.057-3.812-6.188-6-8.999
	c-1.323,2.676-2.145,5.854-6.999,5c-3.819,0.486-3.129-3.536-4.999-5c-0.298,5.489-7.109,7.712-10.999,4
	c-10.271,21.755-24.237-17.839-7.999-21.997c3.412-0.874,8.913,1.139,13.999,4.999c-1.212,2.725-2.519,12.813,1,13.998
	c4.48-3.852,1.32-15.344,6.999-17.998c7.207,0.458-0.68,16.012,4.999,17.998C1221.936-405.767,1216.843-425.523,1221.397-435.635z
	 M1241.395-401.639c3.638-3.141,2.681-14.967-3-14.998C1237.198-412.466,1235.553-401.82,1241.395-401.639z M1190.401-392.641
	c5.304-3.131,6.643-16.69,1-19.997C1187.028-410.355,1184.911-395.564,1190.401-392.641z"/>
<path fill-rule="evenodd" clip-rule="evenodd" d="M1098.413-392.641c0-3.666,0-7.332,0-10.998
	c2.182-4.484,2.647-10.685,7.999-11.999c5.056,1.277,7.993,4.673,7.999,10.999c-0.803,4.53-7.309,3.357-8.999,6.999
	c-1.895,1.318,0.928,6.339,1,8.999c7.954-0.045,8.071-7.927,11.998-11.998c1.147-4.031-1.975-10.102,4-10.999
	c-0.427,6.468,5.565,3.288,6.999,5.999c1.056,6.168-2.514,10.875,1,13.998c4.857-4.474,2.515-16.149,7.999-19.997
	c6.974,0.692-0.515,15.846,4.999,17.998c0.793-2.54,2.402-4.854,3-8.999c1.083-7.52-3.094-19.169,3-21.997
	c7.562-0.224-0.129,12.998,3.999,17.997c3.172-3.511,4.263-14.379,11.998-9.998c-1.479,4.853-5.909,6.755-8.998,9.998
	c3.1,0.34,4.776-2.314,6.999,0c-0.696,3.671-1.726,7.602,0,10.999c6.206-5.459,9.693-13.637,9.998-24.997
	c-9.465-2.533-20.966-3.03-24.996-10.998c4.433-6.51,12.43-0.152,17.997,1.999c6.093,2.354,13.412,5.269,19.998,5.999
	c5.245,0.583,13.783-2.787,16.998,3c-7.187,1.813-17.297,0.701-25.997,1c-1.303,13.561,8.996,39.93-5.999,42.994
	c-2.92-7.297,1.894-16.249-1-22.997c-1.375,4.958-3.219,9.447-9.999,8.999c-4.349-1.65-2.93-9.068-4.999-12.998
	c-4.953,2.379,1.541,16.206-5,16.998c-3.771,0.438-2.107-4.558-3.999-6c-1.066,2.267-3.033,3.634-5.999,4
	c-1.912-1.422-3.578-3.088-5-4.999c-1.653,3.346-3.055,6.943-8.999,5.999c-5.449-1.217-1.125-12.207-3.999-15.998
	C1122.528-391.016,1104.266-375.521,1098.413-392.641z M1105.412-403.639c2.729,0.729,2.013-1.987,4-2
	c0.149-2.482-0.517-4.149-2-4.999C1106.303-408.746,1106.136-405.914,1105.412-403.639z"/>
<path fill-rule="evenodd" clip-rule="evenodd" d="M1215.398-420.637c-1.328,2.021-6.687,3.019-8.999,1
	C1205.175-425.694,1215.831-426.424,1215.398-420.637z"/>
<path fill-rule="evenodd" clip-rule="evenodd" fill="#28B688" d="M969.098-349.443c-5.118,10.103-17.066,2.207-24.991,0
	c-18.49-5.152-40.346-9.445-65.252-6.942c2.308-6.229,12.616-6.381,19.437-6.941c8.111-0.666,18.303-0.541,26.379,0
	C942.156-362.154,962.858-358.732,969.098-349.443z"/>
<path fill-rule="evenodd" clip-rule="evenodd" fill="#28B688" d="M862.354-357.773c-2.682,1.904-10.493,2.822-18.047,4.165
	c-7.555,1.343-26.457,6.274-38.875,11.105c-11.358,4.419-32.735,15.611-36.096,8.33c-3.361-7.281,25.084-15.794,40.261-19.436
	C825.96-357.534,844.579-361.608,862.354-357.773z"/>
<text transform="matrix(1 0 0 1 565.48 -89.3135)" fill="#F45A4E" font-family="'LeckerliOne-Regular'" font-size="80.0919">Route</text>
<text transform="matrix(1 0 0 1 810.395 -88.4658)"><tspan x="0" y="0" fill="#FFFFFF" font-family="'LeckerliOne-Regular'" font-size="80.0919">p</tspan><tspan x="44.049" y="0" fill="#F45A4E" font-family="'LeckerliOne-Regular'" font-size="80.0919">eed</tspan></text>
<text transform="matrix(1 0 0 1 757.0054 -89.1348)" fill="#F45A4E" font-family="'LeckerliOne-Regular'" font-size="109.3014">S</text>
<path fill-rule="evenodd" clip-rule="evenodd" fill="#28B688" d="M915.598-68.407c-5.118,10.103-17.066,2.207-24.991,0
	c-18.49-5.152-40.346-9.445-65.252-6.942c2.308-6.229,12.616-6.381,19.437-6.941c8.111-0.666,18.303-0.541,26.379,0
	C888.656-81.118,909.358-77.696,915.598-68.407z"/>
<path fill-rule="evenodd" clip-rule="evenodd" fill="#28B688" d="M808.854-76.737c-2.682,1.904-10.493,2.822-18.047,4.165
	c-7.555,1.343-26.457,6.274-38.875,11.105c-11.358,4.419-32.735,15.611-36.096,8.33c-3.361-7.281,25.084-15.794,40.261-19.436
	C772.46-76.498,791.079-80.572,808.854-76.737z"/>
<g>
	<path fill="#F45A4E" d="M830.545-131.018c4.085-2.976,9.999-5.064,14.635-5.064c6.639,0,10.846,2.69,12.621,8.07
		c0.515,1.603,0.772,3.378,0.772,5.322c0,4.351-1.417,8.643-4.25,12.879c-2.833,4.236-11.118,13.156-11.118,13.156
		s-14.888,14.645-15.918,14.13c-2.232-1.145-0.133-9.293-0.133-11.583c0-1.259,0.324-0.033,2.917-2.362
		c2.593-2.329,10.099-9.22,12.446-12.654c2.347-3.435,3.52-7.727,3.52-12.878c0-1.259-0.458-2.39-1.374-3.392
		c-0.917-1.001-2.133-1.503-3.648-1.503c-1.518,0-3.164,0.659-4.937,1.975c-1.775,1.318-3.191,2.963-4.25,4.937
		c-1.06,1.975-2.018,3.922-2.876,5.839c-0.859,1.918-1.546,4.336-2.061,7.254c-0.917,5.267-1.961,11.919-3.133,19.962
		c-1.174,8.04-1.904,12.363-2.189,12.964c-0.287,0.601-0.716,1.158-1.288,1.674c-0.573,0.515-1.174,0.772-1.803,0.772
		c-1.146,0-2.09-0.344-2.833-1.03c-2.06-1.774-3.262-3.134-3.605-4.078s-0.515-2.161-0.515-3.648c0-5.609,1.32-18.069,2.833-23.609
		c1.513-5.541,3.501-10.839,5.5-14.443C821.856-121.935,826.46-128.041,830.545-131.018z"/>
</g>
<path fill-rule="evenodd" clip-rule="evenodd" fill="#F45A4E" d="M840.575-118.623c1.537,2.696-0.443,9.406-4.098,10.875
	C828.835-109.876,834.208-122.489,840.575-118.623z"/>
<path fill-rule="evenodd" clip-rule="evenodd" fill="#28B688" d="M388.939-174.572c-5.118,10.103-17.066,2.207-24.991,0
	c-18.49-5.152-40.346-9.445-65.252-6.942c2.308-6.229,12.616-6.381,19.437-6.941c8.111-0.666,18.303-0.541,26.379,0
	C361.997-187.283,382.699-183.861,388.939-174.572z"/>
<path fill-rule="evenodd" clip-rule="evenodd" fill="#28B688" d="M282.195-182.902c-2.682,1.904-10.493,2.822-18.047,4.165
	c-7.555,1.343-26.457,6.274-38.875,11.105c-11.358,4.419-32.735,15.611-36.096,8.33c-3.361-7.281,25.084-15.794,40.261-19.436
	C245.801-182.663,264.42-186.737,282.195-182.902z"/>
<g>
	<path fill="#F45A4E" d="M303.886-237.183c4.085-2.976,9.999-5.064,14.635-5.064c6.639,0,10.846,2.69,12.621,8.07
		c0.515,1.603,0.772,3.378,0.772,5.322c0,4.351-1.417,8.643-4.25,12.879c-2.833,4.236-11.118,13.156-11.118,13.156
		s-14.888,14.645-15.918,14.13c-2.232-1.145-0.133-9.293-0.133-11.583c0-1.259,0.324-0.033,2.917-2.362
		c2.593-2.329,10.099-9.22,12.446-12.654c2.347-3.435,3.52-7.727,3.52-12.878c0-1.259-0.458-2.39-1.374-3.392
		c-0.917-1.001-2.133-1.503-3.648-1.503c-1.518,0-3.164,0.659-4.937,1.975c-1.775,1.318-3.191,2.963-4.25,4.937
		c-1.06,1.975-2.018,3.922-2.876,5.839c-0.859,1.918-1.546,4.336-2.061,7.254c-0.917,5.267-1.961,11.919-3.133,19.962
		c-1.174,8.04-2.904,18.363-3.189,18.964c-0.287,0.601-0.716,1.158-1.288,1.674c-0.573,0.515-1.174,0.772-1.803,0.772
		c-1.146,0-2.09-0.344-2.833-1.03c-2.06-1.774-3.262-3.134-3.605-4.078s-0.515-2.161-0.515-3.648c0-5.609,2.32-24.069,3.833-29.609
		c1.513-5.541,3.501-10.839,5.5-14.443C295.197-228.1,299.801-234.206,303.886-237.183z"/>
</g>
<path fill-rule="evenodd" clip-rule="evenodd" fill="#F45A4E" d="M313.916-224.788c1.537,2.696-0.443,9.406-4.098,10.875
	C302.176-216.041,307.549-228.654,313.916-224.788z"/>
<text transform="matrix(1 0 0 1 -457.3882 -23.3916)" fill="#F45A4E" font-family="'LeckerliOne-Regular'" font-size="56.1834">O</text>
<g>
	<path fill="#FFFFFF" d="M45.489,50.943c0.722,0,1.083,0.978,1.083,2.931c0,1.062-0.446,2.347-1.338,3.854s-2.05,2.889-3.472,4.141
		c-1.423,1.253-3.005,2.284-4.747,3.09c-1.742,0.808-3.398,1.211-4.969,1.211c-1.572,0-2.803-0.297-3.695-0.893
		c-0.892-0.594-1.592-1.401-2.102-2.421c-0.723-1.443-1.317-4.193-1.784-8.25c-0.468-4.056-0.935-6.891-1.401-8.505
		c-1.105-0.213-2.071-0.647-2.899-1.307c-0.828-0.658-1.242-1.465-1.242-2.421s0.435-1.646,1.306-2.07
		c0.87-0.424,1.868-0.638,2.994-0.638c1.125,0,2.134,0.277,3.026,0.829c1.188-0.977,2.155-2.135,2.898-3.473
		c0.743-1.338,1.115-3.143,1.115-5.415c0-2.271-0.765-4.088-2.293-5.447c-1.529-1.359-3.77-2.039-6.722-2.039
		c-2.953,0-5.214,0.234-6.785,0.701c-1.572,0.468-2.92,0.978-4.045,1.529c-1.126,0.552-2.125,1.062-2.994,1.528
		c-0.871,0.468-1.688,0.701-2.453,0.701c-0.764,0-1.146-0.244-1.146-0.732s0.403-1.284,1.21-2.39
		c0.806-1.104,1.996-2.208,3.567-3.313c3.95-2.761,8.41-4.131,13.379-4.109c4.969,0.021,9.067,0.967,12.296,2.835
		c3.78,2.209,5.67,5.521,5.67,9.938c0.042,3.653-0.914,6.689-2.867,9.11c-1.954,2.421-4.375,4.163-7.263,5.225
		c0.637,1.401,1.157,2.91,1.561,4.523c0.403,1.614,0.796,3.101,1.179,4.46s0.817,2.484,1.306,3.376
		c0.488,0.893,1.083,1.338,1.784,1.338s1.55-0.414,2.548-1.242c0.998-0.828,1.985-1.73,2.962-2.708
		c0.977-0.977,1.858-1.879,2.644-2.707C44.586,51.357,45.148,50.943,45.489,50.943z M17.775,28.008c0.552,0,0.828,0.723,0.828,2.166
		c0,1.444-0.085,2.803-0.255,4.077c-0.382,2.464-0.871,4.758-1.465,6.881c-1.529,5.776-2.294,9.153-2.294,10.13v9.365
		c0,2.294-0.871,3.865-2.612,4.715c-0.808,0.382-1.583,0.742-2.326,1.083c-0.744,0.339-1.583,0.51-2.517,0.51
		c-1.784,0-2.676-2.049-2.676-6.148c0-4.099,0.956-9.27,2.867-15.514c1.911-6.243,3.907-10.999,5.989-14.271
		c0.424-0.637,1.04-1.295,1.848-1.975C15.969,28.348,16.84,28.008,17.775,28.008z"/>
	<path fill="#FFFFFF" d="M69.124,60.563c-3.355,3.95-7.38,5.925-12.073,5.925c-4.694,0-8.208-1.199-10.544-3.6
		c-2.336-2.399-3.483-5.384-3.44-8.951c-0.043-5.054,1.55-9.407,4.778-13.061c3.227-3.652,7.454-5.479,12.678-5.479
		c2.378,0,4.29,0.298,5.734,0.893c2.505,1.02,3.759,1.975,3.759,2.867c0,0.68-1.752,1.03-5.256,1.051
		c-3.504,0.021-6.435,1.232-8.792,3.632c-2.357,2.399-3.536,5.426-3.536,9.078c0,1.911,0.563,3.515,1.688,4.811
		c1.125,1.296,2.717,1.942,4.778,1.942c2.06,0,3.769-0.424,5.128-1.273c-3.016-2.039-4.523-4.99-4.523-8.856
		c-0.043-2.038,0.69-3.896,2.198-5.574c1.507-1.678,3.44-2.526,5.797-2.549c2.357-0.021,4.045,0.628,5.065,1.943
		c1.02,1.317,1.529,3.006,1.529,5.065c0,2.061-0.489,4.236-1.465,6.53h0.382c1.869-0.042,3.482-0.701,4.842-1.976
		c0.509-0.51,0.944-0.955,1.306-1.338c0.36-0.382,0.733-0.573,1.115-0.573c0.594,0,0.892,0.701,0.892,2.103
		c0,2.591-0.764,4.534-2.293,5.829c-1.529,1.297-3.217,1.943-5.065,1.943S70.398,60.818,69.124,60.563z M68.551,53.173
		c0.722-1.529,1.083-3.016,1.083-4.46c0-1.443-0.468-2.166-1.401-2.166c-0.382,0-0.701,0.277-0.956,0.828
		c-0.255,0.553-0.382,1.083-0.382,1.593C66.894,50.667,67.446,52.069,68.551,53.173z"/>
	<path fill="#FFFFFF" d="M97.793,39.093c0-2.845,2.208-4.269,6.625-4.269c1.104,0,1.794,0.361,2.071,1.083
		c0.276,0.723,0.414,1.827,0.414,3.313c0,2.081-0.468,5.31-1.401,9.684c-0.935,4.375-1.381,7.326-1.338,8.855
		c0,0.723,0.233,1.083,0.701,1.083c0.637,0,1.422-0.403,2.357-1.21c0.934-0.807,1.869-1.688,2.803-2.645
		c0.934-0.955,1.794-1.836,2.581-2.644c0.785-0.807,1.327-1.211,1.625-1.211c0.594,0,0.892,0.723,0.892,2.167
		c0,2.973-1.465,5.84-4.396,8.601c-4.928,2.889-8.049,4.332-9.365,4.332c-0.127,0-0.234-0.021-0.319-0.063
		c-1.615,0-2.75-0.531-3.408-1.593c-0.659-1.062-1.073-2.399-1.243-4.014c-0.85,1.571-2.018,2.92-3.504,4.045
		c-1.487,1.126-3.186,1.688-5.097,1.688c-3.356,0-5.936-0.637-7.741-1.911c-1.806-1.274-2.708-3.163-2.708-5.67
		c0-1.104,0.159-2.123,0.478-3.059c0.319-0.934,0.838-2.08,1.561-3.44l1.848-15.672c1.316-1.02,3.206-1.529,5.67-1.529
		c1.953,0,3.058,1.274,3.313,3.822c0.212,2.082,0.117,3.94-0.287,5.575c-0.404,1.636-0.946,3.695-1.625,6.18
		c-0.68,2.484-1.02,4.683-1.02,6.594c0,1.529,0.956,2.294,2.867,2.294c2.08,0,3.886-1.826,5.415-5.479
		c1.188-2.803,1.996-5.925,2.421-9.365c-0.042-0.34-0.075-0.774-0.095-1.306c-0.022-0.531-0.043-1.052-0.064-1.562
		c-0.022-0.51-0.032-1.02-0.032-1.528V39.093z"/>
	<path fill="#FFFFFF" d="M114.771,62.506c-0.489-1.124-0.839-2.441-1.051-3.949c-0.213-1.508-0.319-3.621-0.319-6.34
		c0-2.717,0.51-6.392,1.529-11.021h-2.867c-0.51,0-0.764-0.212-0.764-0.637c0-1.02,0.095-1.857,0.287-2.517
		c0.191-0.658,0.647-1.412,1.37-2.262h1.529c0.595,0,1.231-0.021,1.912-0.063c2.039-6.541,4.119-9.812,6.244-9.812
		c1.698,0.043,2.888,1.126,3.567,3.249c0.169,0.596,0.36,1.232,0.574,1.911l-2.612,4.587c2.973,0.086,4.852,0.128,5.638,0.128
		c0.786,0,1.21,0.074,1.274,0.223c0.063,0.149,0.095,0.372,0.095,0.669c0,0.765-0.181,1.721-0.542,2.867
		c-0.361,1.146-0.775,1.699-1.242,1.656l-6.371-0.318c-0.892,5.183-1.338,9.472-1.338,12.869c0,3.398,0.488,5.097,1.465,5.097
		c0.807,0,2.272-0.669,4.396-2.007c2.124-1.338,3.652-2.622,4.587-3.854c0.934-1.231,1.698-1.848,2.293-1.848
		c0.594,0,0.892,0.723,0.892,2.167s-0.51,2.92-1.529,4.428s-2.305,2.889-3.854,4.141c-1.551,1.253-3.271,2.284-5.16,3.09
		c-1.891,0.808-3.536,1.211-4.938,1.211c-1.402,0-2.475-0.329-3.218-0.987C115.875,64.524,115.259,63.632,114.771,62.506z"/>
	<path fill="#FFFFFF" d="M146.976,59.034c3.313,0,6.519-1.316,9.62-3.95c1.146-0.977,2.081-1.879,2.803-2.707
		c0.722-0.829,1.274-1.243,1.656-1.243c0.594,0,0.892,0.596,0.892,1.784c0,1.189-0.319,2.517-0.956,3.981
		c-0.637,1.466-1.7,2.899-3.186,4.301c-3.653,3.44-8.665,5.16-15.036,5.16c-5.055,0-8.495-1.825-10.321-5.479
		c-0.637-1.274-0.956-3.1-0.956-5.479c0-2.378,0.467-4.852,1.401-7.422c0.934-2.569,2.176-4.788,3.727-6.657
		c1.55-1.869,3.345-3.323,5.383-4.364c2.039-1.04,4.215-1.562,6.53-1.562c2.314,0,4.099,0.574,5.352,1.721
		c1.252,1.146,1.879,2.634,1.879,4.46s-0.457,3.323-1.37,4.491c-0.914,1.169-2.092,2.146-3.536,2.931
		c-1.444,0.786-3.048,1.487-4.81,2.103c-1.763,0.616-3.494,1.306-5.192,2.07v1.593c0.042,1.529,0.679,2.612,1.911,3.249
		C144.002,58.652,145.404,58.992,146.976,59.034z M145.893,41.068c-2.208,0-3.738,2.57-4.587,7.709
		c0.892-0.595,1.73-1.125,2.517-1.593c0.785-0.467,1.475-0.913,2.07-1.338c1.274-0.935,1.933-1.996,1.975-3.186
		C147.868,41.6,147.209,41.068,145.893,41.068z"/>
</g>
<g>
	<path fill="#FFFFFF" d="M247.371,59.709c3.313,0,6.519-1.316,9.62-3.95c1.146-0.977,2.081-1.879,2.803-2.707
		c0.722-0.829,1.274-1.243,1.656-1.243c0.594,0,0.892,0.596,0.892,1.784c0,1.189-0.319,2.517-0.956,3.981
		c-0.637,1.466-1.699,2.899-3.186,4.301c-3.653,3.44-8.665,5.16-15.036,5.16c-5.055,0-8.495-1.825-10.321-5.479
		c-0.637-1.274-0.956-3.1-0.956-5.479c0-2.378,0.467-4.852,1.401-7.422c0.934-2.569,2.176-4.788,3.727-6.657
		c1.55-1.869,3.345-3.323,5.383-4.364c2.039-1.04,4.215-1.562,6.53-1.562c2.314,0,4.099,0.574,5.352,1.721
		c1.252,1.146,1.879,2.634,1.879,4.46s-0.457,3.323-1.37,4.491c-0.914,1.169-2.092,2.146-3.536,2.931
		c-1.444,0.786-3.048,1.487-4.81,2.103c-1.763,0.616-3.494,1.306-5.192,2.07v1.593c0.042,1.529,0.679,2.612,1.911,3.249
		C244.397,59.327,245.799,59.667,247.371,59.709z M246.288,41.743c-2.208,0-3.738,2.57-4.587,7.709
		c0.892-0.595,1.73-1.125,2.517-1.593c0.785-0.467,1.475-0.913,2.07-1.338c1.274-0.935,1.933-1.996,1.975-3.186
		C248.263,42.274,247.604,41.743,246.288,41.743z"/>
	<path fill="#FFFFFF" d="M274.001,59.709c3.313,0,6.519-1.316,9.62-3.95c1.146-0.977,2.081-1.879,2.803-2.707
		c0.722-0.829,1.274-1.243,1.656-1.243c0.594,0,0.892,0.596,0.892,1.784c0,1.189-0.319,2.517-0.956,3.981
		c-0.637,1.466-1.7,2.899-3.186,4.301c-3.653,3.44-8.665,5.16-15.036,5.16c-5.055,0-8.495-1.825-10.321-5.479
		c-0.637-1.274-0.956-3.1-0.956-5.479c0-2.378,0.467-4.852,1.401-7.422c0.934-2.569,2.176-4.788,3.727-6.657
		c1.55-1.869,3.345-3.323,5.383-4.364c2.039-1.04,4.215-1.562,6.53-1.562c2.314,0,4.099,0.574,5.352,1.721
		c1.252,1.146,1.879,2.634,1.879,4.46s-0.457,3.323-1.37,4.491c-0.914,1.169-2.092,2.146-3.536,2.931
		c-1.444,0.786-3.048,1.487-4.81,2.103c-1.763,0.616-3.494,1.306-5.192,2.07v1.593c0.042,1.529,0.679,2.612,1.911,3.249
		C271.028,59.327,272.429,59.667,274.001,59.709z M272.918,41.743c-2.208,0-3.738,2.57-4.587,7.709
		c0.892-0.595,1.73-1.125,2.517-1.593c0.785-0.467,1.475-0.913,2.07-1.338c1.274-0.935,1.933-1.996,1.975-3.186
		C274.893,42.274,274.234,41.743,272.918,41.743z"/>
	<path fill="#FFFFFF" d="M324.905,51.618c0.765,0,1.147,0.978,1.147,2.931c0,1.062-0.446,2.347-1.338,3.854s-2.05,2.889-3.472,4.141
		c-1.423,1.253-3.005,2.284-4.747,3.09c-1.742,0.808-3.44,1.211-5.097,1.211c-2.336,0-3.865-1.911-4.587-5.734
		c-2.548,4.036-6.329,6.053-11.34,6.053c-3.058,0-5.501-0.934-7.327-2.804c-1.827-1.868-2.719-4.141-2.676-6.816
		c0-7.221,2.399-12.911,7.199-17.074c3.313-2.845,6.753-4.269,10.321-4.269c1.614,0,2.888,0.127,3.823,0.382l1.465,0.383
		c1.741-8.197,3.759-13.676,6.052-16.438c0.765-0.934,1.529-1.401,2.293-1.401c1.231,0,2.378,0.85,3.44,2.548
		c0.934,1.402,1.402,2.612,1.402,3.632s-0.149,2.018-0.446,2.994c-0.297,0.978-0.669,1.88-1.115,2.708s-0.946,1.636-1.497,2.421
		c-0.553,0.786-1.105,1.583-1.657,2.389c-1.232,4.588-2.145,9.728-2.739,15.418c-0.17,1.615-0.255,2.91-0.255,3.887
		c0,2.931,0.488,4.396,1.465,4.396c1.104,0,3.78-2.208,8.027-6.626C324.014,52.043,324.565,51.618,324.905,51.618z M294.834,55.44
		c0,3.271,1.21,4.905,3.631,4.905c1.443,0,2.899-0.551,4.364-1.656c1.465-1.104,2.601-2.951,3.409-5.543
		c0.084-3.822,0.53-8.027,1.338-12.614c-3.399,0.68-6.371,2.337-8.919,4.97C296.109,48.136,294.834,51.448,294.834,55.44z"/>
</g>
<g>
	<path fill="#FFFFFF" d="M167.044,47.775c0,5.043,2.144,7.564,6.434,7.564c4.695,0,7.854-1.622,9.477-4.869
		c0.579-1.158,0.87-2.651,0.87-4.478c0-1.825-0.435-3.521-1.304-5.086c-1.45-2.491-3.942-5.245-7.478-8.26
		c-5.855-4.984-8.781-10.157-8.781-15.52c0-5.36,1.681-9.49,5.043-12.39c3.361-2.897,7.216-4.348,11.563-4.348
		s7.795,1.103,10.346,3.305c2.55,2.203,3.826,5.507,3.826,9.911c0,2.899-0.971,5.421-2.913,7.564
		c-1.943,2.145-4.507,3.478-7.694,3.999c1.448,1.218,2.897,2.465,4.347,3.739c1.391,1.275,2.665,2.666,3.825,4.173
		c2.55,3.421,3.826,7.507,3.826,12.26c0,3.304-0.769,6.289-2.304,8.955c-1.537,2.667-3.537,4.912-6,6.738
		c-2.464,1.825-5.231,3.231-8.303,4.217c-3.073,0.984-5.942,1.478-8.607,1.478c-5.681,0-10.085-1.304-13.215-3.912
		c-3.652-2.956-5.478-7.217-5.478-12.781c0-3.651,1.187-7.187,3.564-10.607c2.376-3.419,4.897-5.129,7.564-5.129
		c2.086,0,3.13,0.638,3.13,1.912c0,1.855-0.291,3.695-0.87,5.521C167.333,43.559,167.044,45.573,167.044,47.775z M183.911,23.084
		c3.304-3.305,4.956-6.752,4.956-10.347c0-1.101-0.58-2.028-1.739-2.782c-1.275-0.695-2.608-1.044-4-1.044
		c-3.13,0-5.391,1.016-6.782,3.044c0.696,2.492,1.724,4.607,3.086,6.347C180.794,20.04,182.288,21.636,183.911,23.084z"/>
</g>
<path fill-rule="evenodd" clip-rule="evenodd" fill="#28B688" d="M290.905,83.015c-4.336,7.896-13.626,1.303-19.868-0.662
	c-14.563-4.585-31.826-8.576-51.692-7.246c2-4.892,10.198-4.739,15.636-5.004c6.466-0.314,14.565,0.055,20.972,0.698
	C269.822,72.196,286.19,75.464,290.905,83.015z"/>
<path fill-rule="evenodd" clip-rule="evenodd" fill="#28B688" d="M205.649,73.361c-2.183,1.443-8.417,1.967-14.458,2.834
	c-6.042,0.868-21.2,4.288-31.2,7.8c-9.146,3.214-26.438,11.546-28.917,5.668c-2.48-5.878,20.36-11.893,32.522-14.386
	C176.709,72.589,191.619,69.843,205.649,73.361z"/>
<path fill="#FFFFFF" d="M199.202,47.881c0,0-0.917,16.493,15.507,27.468c0,0-1.926-9.393,6.03-13.177
	c5.568-2.353,9.477-7.865,9.477-14.291c0-8.564-6.943-15.506-15.507-15.506C206.144,32.375,199.202,39.316,199.202,47.881
	 M225.224,47.881c0,5.697-4.532,10.334-10.187,10.508c-0.109,0.004-0.219,0.009-0.329,0.009c-4.476,0-8.296-2.799-9.814-6.739
	c-0.452-1.172-0.702-2.445-0.702-3.777c0-5.807,4.708-10.516,10.517-10.516C220.516,37.365,225.224,42.074,225.224,47.881"/>
<g>
	<g>
		<path fill="#FFFFFF" d="M217.229,33.873c4.927,0,8.048,1.997,9.365,5.989c0.382,1.189,0.573,2.506,0.573,3.949
			c0,3.229-1.051,6.414-3.153,9.557c-2.103,3.145-4.641,5.268-7.613,6.371h0.765c3.1,0,6.244-1.146,9.429-3.44
			c2.039-1.443,3.642-2.94,4.81-4.491c1.167-1.55,2.049-2.325,2.644-2.325c0.594,0,0.892,0.68,0.892,2.038
			c0,2.38-1.02,4.778-3.059,7.199c-3.058,3.483-6.966,5.522-11.722,6.116c-3.44,0.382-5.883,0.446-7.327,0.191
			c-1.444-0.255-2.548-0.573-3.313-0.956c-1.656-0.849-2.485-2.123-2.485-3.822c0-0.934,0.191-1.784,0.574-2.548
			c3.354,0,5.903-1.274,7.645-3.823c1.741-2.549,2.612-5.733,2.612-9.557c0-0.934-0.643-3.065-1.704-4.391
			c-1.061-1.325-2.624-2.047-5.687-1.753C207.413,38.473,213.789,33.873,217.229,33.873z"/>
	</g>
</g>
</svg>
